<?xml version="1.0" encoding="UTF-8"?><svg id="_レイヤー_1" xmlns="http://www.w3.org/2000/svg" viewBox="0 0 1024 1024"><defs><style>.cls-1{fill:#eceff1;}.cls-2{fill:none;stroke:#eceff1;stroke-miterlimit:10;stroke-width:24px;}.cls-3{fill:#b0bec5;}.cls-4{fill:#263238;}</style></defs><g><rect class="cls-4" x="12" y="12" width="1000" height="1000" rx="216" ry="216"/><rect class="cls-2" x="12" y="12" width="1000" height="1000" rx="216" ry="216"/></g><g><path class="cls-3" d="M186.19,608h.34c2.7,0,5.02,1.14,6.96,3.42,.49,.57,1.35,2.15,2.57,4.73,8.59,17.07,15.51,30.88,20.75,41.45,.72,1.41,3.86,7.64,9.41,18.7h.06c10.07-19.92,15.55-30.75,16.42-32.5,1.18-1.82,2.81-3.08,4.9-3.76,.99-.3,1.92-.46,2.79-.46,2.81,0,5.21,1.16,7.18,3.48,.49,.65,1.2,1.98,2.11,3.99,5.32,10.57,9.41,18.72,12.26,24.46,7.07,13.99,10.72,21.29,10.95,21.89,.46,1.14,.68,2.24,.68,3.31v.34c0,2.55-1.08,4.81-3.25,6.79-1.75,1.41-3.67,2.11-5.76,2.11h-.29c-2.59,0-4.88-1.1-6.9-3.31-.49-.57-1.45-2.36-2.85-5.36-.8-1.52-4.9-9.69-12.32-24.52l-1.82-3.59-16.31,32.5c-1.1,1.79-2.79,3.08-5.07,3.88-.87,.27-1.73,.4-2.57,.4h-.23c-2.85,0-5.27-1.23-7.24-3.71l-.8-1.31c-.08,0-.29-.4-.63-1.2-.08-.04-3.88-7.62-11.4-22.75-.04-.04-4.94-9.86-14.71-29.48-.08-.04-3.78-7.43-11.12-22.18-1.94-3.65-2.91-5.97-2.91-6.96-.08-.19-.11-.59-.11-1.2v-.23c0-2.89,1.27-5.32,3.82-7.3,1.67-1.1,3.36-1.65,5.07-1.65Z"/><path class="cls-3" d="M311.85,608.46h47.67l.23,.11h.17c2.85,0,5.17,1.46,6.96,4.39,.61,1.22,.91,2.47,.91,3.76,0,3.15-1.56,5.59-4.68,7.3-1.06,.49-2.13,.74-3.19,.74h-48.58c-2.28,0-4.3-1.04-6.04-3.14-1.14-1.52-1.71-3.08-1.71-4.67v-.68c0-2.51,1.25-4.66,3.76-6.44,1.37-.84,2.72-1.25,4.05-1.25h.23l.23-.11Zm-.11,40.77l24.57,.12c1.63,0,3.38,.84,5.25,2.51,1.48,1.71,2.22,3.57,2.22,5.59,0,2.81-1.31,5.11-3.93,6.9-1.29,.76-2.55,1.14-3.76,1.14h-24.86c-2.43,0-4.54-1.22-6.33-3.65-.87-1.37-1.31-2.74-1.31-4.11v-.68c0-2.58,1.35-4.81,4.05-6.67,1.37-.68,2.66-1.03,3.88-1.03h.11c.08,0,.11-.04,.11-.12Zm.11,40.6h47.67c0,.08,.59,.17,1.77,.29,1.98,.49,3.48,1.39,4.5,2.68,1.33,1.56,2,3.34,2,5.36,0,3.08-1.56,5.51-4.68,7.3-.95,.34-1.6,.51-1.94,.51h-50.97c-1.33,0-2.93-.89-4.79-2.68-1.22-1.63-1.82-3.29-1.82-4.96v-.51c0-2.81,1.43-5.11,4.28-6.9,.84-.49,2.13-.84,3.88-1.03,0-.04,.04-.06,.11-.06Zm47.61-40.48h.4c3.08,0,5.49,1.6,7.24,4.79,.46,1.14,.68,2.24,.68,3.31,0,3.19-1.58,5.65-4.73,7.36-1.14,.46-2.15,.68-3.02,.68h-.8c-2.59,0-4.79-1.35-6.61-4.05-.72-1.37-1.08-2.72-1.08-4.05,0-3.12,1.56-5.55,4.68-7.3,1.18-.49,2.26-.74,3.25-.74Z"/><path class="cls-3" d="M392.11,607.72h36.43c8.25,0,15.36,3.16,21.32,9.47,4.9,5.59,7.36,11.95,7.36,19.1,0,7.94-2.87,14.77-8.61,20.47,5.74,5.44,8.61,12.26,8.61,20.47,0,8.74-3.63,16.19-10.89,22.35-2.39,1.75-4.68,3.08-6.84,3.99-3.42,1.29-6.1,1.94-8.04,1.94h-36.38c-1.22,0-2.7-.78-4.45-2.34-1.52-1.71-2.28-3.55-2.28-5.53v-41.11c0-3.04,1.56-5.45,4.68-7.24,1.33-.53,2.45-.8,3.36-.8,1.22,.04,1.96,.06,2.22,.06,5.97,0,16.23,.02,30.79,.06,2.01,0,4.31-.85,6.9-2.57,3.12-2.81,4.68-6.1,4.68-9.86,0-2.96-1.16-5.78-3.48-8.44-2.36-2.43-5.28-3.65-8.78-3.65h-36.6c-3.69,0-6.33-1.79-7.93-5.36-.3-.99-.46-1.88-.46-2.68v-.29c0-2.77,1.29-5.04,3.88-6.78,1.29-.84,2.79-1.26,4.5-1.26Zm14.82,57.59v24.46h23.66c5.85,0,9.84-2.89,11.97-8.67,.38-1.37,.57-2.53,.57-3.48,0-3.12-1.24-6.03-3.71-8.72-2.28-2.39-5.38-3.59-9.29-3.59h-23.21Z"/><path class="cls-3" d="M494.72,617.01c2.96,0,5.32,1.48,7.07,4.45,.53,1.25,.8,2.41,.8,3.48,0,3.04-1.5,5.4-4.5,7.07-5.78,4.11-9.75,9.45-11.92,16.02-1.18,3.84-1.77,7.41-1.77,10.72,0,7.87,3,15.11,9.01,21.72,2.74,2.66,4.94,4.39,6.61,5.19,5.28,2.96,10.81,4.45,16.59,4.45,7.07,0,13.74-2.47,20.01-7.41,1.37-.8,2.76-1.2,4.16-1.2,3.12,0,5.53,1.58,7.24,4.73,.46,1.1,.68,2.19,.68,3.25,0,3.19-1.82,5.83-5.47,7.92-2.55,1.75-4.87,3.12-6.96,4.11-2.43,1.14-4.71,2.05-6.84,2.74-4.22,1.14-7.34,1.71-9.35,1.71h-7.18c-2.93,0-7.3-.91-13.11-2.74-11.21-3.99-19.92-11.88-26.11-23.66-3.46-6.88-5.19-13.83-5.19-20.87,0-8.17,2.03-16.14,6.1-23.89,1.33-2.43,3.34-5.15,6.04-8.15,2.62-2.77,4.64-4.64,6.04-5.59,3.23-2.62,5.68-3.93,7.36-3.93l.68-.11Zm20.01-8.55h.46c2.7,0,5,1.25,6.9,3.76,.99,1.48,1.48,3.12,1.48,4.9,0,3.23-1.56,5.76-4.68,7.58-1.45,.65-2.74,.97-3.88,.97-3.42,0-6.06-1.69-7.93-5.07-.49-1.29-.74-2.49-.74-3.59,0-3.19,1.54-5.72,4.62-7.58,1.33-.65,2.58-.97,3.76-.97Z"/><path class="cls-3" d="M565.29,608.46c3.19,0,5.62,1.6,7.3,4.79,.46,1.03,.68,1.98,.68,2.85v82.27c0,2.77-1.46,5.07-4.39,6.9-1.06,.46-1.81,.68-2.22,.68h-2.85c-1.29-.08-2.79-.84-4.5-2.28-1.45-1.75-2.17-3.48-2.17-5.19-.04,0-.06-.34-.06-1.03v-80.51c0-4.03,2-6.77,5.99-8.21,.76-.19,1.5-.29,2.22-.29Zm32.04,81.42h16.08c4.22,0,7.05,1.94,8.5,5.82,.19,.8,.29,1.46,.29,2v.74c0,2.66-1.43,4.92-4.28,6.79-1.14,.49-1.94,.74-2.39,.74h-20.13c-1.45,0-3.06-.91-4.85-2.74-1.25-1.56-1.88-3.17-1.88-4.85v-.63c0-2.81,1.43-5.11,4.28-6.9,1.25-.65,2.72-.97,4.39-.97Z"/><path class="cls-3" d="M659.88,613.02c.34,.49,2.72,5.19,7.13,14.08,20.15,40.14,30.22,60.27,30.22,60.38,2.58,4.75,3.88,7.98,3.88,9.69,0,2.47-.91,4.64-2.74,6.5-1.82,1.52-3.4,2.28-4.73,2.28h-3.02c-.23,0-.49-.04-.8-.11-2.2-.72-3.88-1.94-5.02-3.65l-29.19-57.76c-.76-2.13-1.75-3.19-2.96-3.19-.65,0-1.24,.27-1.77,.8-7.87,15.77-11.92,23.83-12.14,24.17-2.02,2.7-4.5,4.05-7.47,4.05-1.37,0-2.76-.34-4.16-1.03-3.31-1.94-4.96-4.62-4.96-8.04,0-.38,.27-1.5,.8-3.36,.19-.61,7.53-15.3,22.01-44.07,1.94-2.96,4.39-4.45,7.35-4.45h.68c2.58,0,4.88,1.24,6.9,3.71Z"/><path class="cls-3" d="M728.27,608.46h.68c4.07,0,8.12,1.1,12.15,3.31,2.01,1.75,3.02,3.73,3.02,5.93v.46c0,2.66-1.35,4.85-4.05,6.56-1.18,.53-2.3,.8-3.36,.8h-.29c-.99,0-2.76-.47-5.3-1.42-.99-.26-2.02-.4-3.08-.4-2.93,0-5.66,1.26-8.21,3.76-1.94,2.58-2.91,5.19-2.91,7.81,0,3.04,1.12,5.78,3.36,8.21,.91,1.37,1.37,2.85,1.37,4.45,0,2.93-1.46,5.21-4.39,6.84-1.06,.46-2.01,.68-2.85,.68h-.74c-2.89,0-5.46-1.92-7.7-5.76-2.85-4.64-4.28-9.46-4.28-14.48,0-6.16,2.2-11.99,6.61-17.5,1.79-1.98,3.36-3.4,4.73-4.28,5.13-3.31,10.21-4.96,15.22-4.96Zm18.76,50.74h.23c2.74,0,5.04,1.42,6.9,4.28,3.61,5.05,5.42,10.45,5.42,16.19,0,6.04-2.17,11.76-6.5,17.16-2.66,2.85-4.83,4.66-6.5,5.42-2.51,1.37-4.22,2.15-5.13,2.34-2.7,.91-4.83,1.37-6.39,1.37h-4.79c-2.09,0-5-.82-8.72-2.45l-1.94-1.37c-1.67-1.6-2.51-3.5-2.51-5.7,0-3,1.54-5.3,4.62-6.9,1.06-.42,2.07-.63,3.02-.63,1.22,0,2.89,.5,5.02,1.48,1.33,.34,2.51,.51,3.53,.51,3.99,0,7.24-2.05,9.75-6.16,.84-1.67,1.26-3.34,1.26-5.02,0-3.15-1.18-6.06-3.54-8.72-.84-1.37-1.25-2.81-1.25-4.33,0-2.58,1.25-4.71,3.76-6.39,1.22-.72,2.47-1.08,3.76-1.08Zm-16.42-9.46c3.15,0,5.51,1.62,7.07,4.85,.3,.95,.46,1.8,.46,2.57v.34c0,2.74-1.35,4.92-4.05,6.56-1.14,.57-2.19,.86-3.14,.86h-.74c-2.43,0-4.5-1.27-6.21-3.82-.65-1.29-.97-2.45-.97-3.48v-.46c0-2.39,1.08-4.41,3.25-6.04,1.29-.91,2.74-1.37,4.33-1.37Z"/><path class="cls-3" d="M785.7,608.46h.68c4.07,0,8.12,1.1,12.15,3.31,2.01,1.75,3.02,3.73,3.02,5.93v.46c0,2.66-1.35,4.85-4.05,6.56-1.18,.53-2.3,.8-3.36,.8h-.29c-.99,0-2.76-.47-5.3-1.42-.99-.26-2.02-.4-3.08-.4-2.93,0-5.66,1.26-8.21,3.76-1.94,2.58-2.91,5.19-2.91,7.81,0,3.04,1.12,5.78,3.36,8.21,.91,1.37,1.37,2.85,1.37,4.45,0,2.93-1.46,5.21-4.39,6.84-1.06,.46-2.01,.68-2.85,.68h-.74c-2.89,0-5.46-1.92-7.7-5.76-2.85-4.64-4.28-9.46-4.28-14.48,0-6.16,2.2-11.99,6.61-17.5,1.79-1.98,3.36-3.4,4.73-4.28,5.13-3.31,10.21-4.96,15.22-4.96Zm18.76,50.74h.23c2.74,0,5.04,1.42,6.9,4.28,3.61,5.05,5.42,10.45,5.42,16.19,0,6.04-2.17,11.76-6.5,17.16-2.66,2.85-4.83,4.66-6.5,5.42-2.51,1.37-4.22,2.15-5.13,2.34-2.7,.91-4.83,1.37-6.39,1.37h-4.79c-2.09,0-5-.82-8.72-2.45l-1.94-1.37c-1.67-1.6-2.51-3.5-2.51-5.7,0-3,1.54-5.3,4.62-6.9,1.06-.42,2.07-.63,3.02-.63,1.22,0,2.89,.5,5.02,1.48,1.33,.34,2.51,.51,3.53,.51,3.99,0,7.24-2.05,9.75-6.16,.84-1.67,1.26-3.34,1.26-5.02,0-3.15-1.18-6.06-3.54-8.72-.84-1.37-1.25-2.81-1.25-4.33,0-2.58,1.25-4.71,3.76-6.39,1.22-.72,2.47-1.08,3.76-1.08Zm-16.42-9.46c3.15,0,5.51,1.62,7.07,4.85,.3,.95,.46,1.8,.46,2.57v.34c0,2.74-1.35,4.92-4.05,6.56-1.14,.57-2.19,.86-3.14,.86h-.74c-2.43,0-4.5-1.27-6.21-3.82-.65-1.29-.97-2.45-.97-3.48v-.46c0-2.39,1.08-4.41,3.25-6.04,1.29-.91,2.74-1.37,4.33-1.37Z"/></g><g><path class="cls-1" d="M146.81,312.83h1.82c7.49,0,13.67,3.9,18.53,11.7,1.62,3.24,2.43,6.63,2.43,10.18v216.94c0,8-3.95,14.38-11.85,19.14-2.73,1.22-4.76,1.82-6.08,1.82h-7.75c-2.73,0-6.18-1.57-10.33-4.71-5.07-4.46-7.6-10.28-7.6-17.47v-214.51c0-11.34,5.47-18.84,16.41-22.48,1.92-.4,3.39-.61,4.41-.61Zm87.35,108.32c7.6,0,13.87,3.7,18.84,11.09,1.82,3.55,2.73,7.14,2.73,10.79,0,8.91-4.56,15.65-13.67,20.21-2.84,1.01-5.57,1.52-8.2,1.52-8.31,0-14.79-4.1-19.45-12.31-1.52-3.24-2.28-6.43-2.28-9.57,0-8.51,4.3-15.14,12.91-19.9,3.44-1.22,6.48-1.82,9.12-1.82Zm84.77-108.32h1.82c7.49,0,13.67,3.9,18.53,11.7,1.62,3.24,2.43,6.63,2.43,10.18v216.94c0,8-3.95,14.38-11.85,19.14-2.73,1.22-4.76,1.82-6.08,1.82h-7.75c-2.73,0-6.18-1.57-10.33-4.71-5.07-4.46-7.6-10.28-7.6-17.47v-214.51c0-11.34,5.47-18.84,16.41-22.48,1.92-.4,3.39-.61,4.41-.61Zm-4.94,152.17h-80c-12.15,0-22-9.85-22-22h0c0-12.15,9.85-22,22-22h80c12.15,0,22,9.85,22,22h0c0,12.15-9.85,22-22,22Z"/><path class="cls-1" d="M753.46,336c7.9,0,14.18,3.95,18.84,11.85,1.42,3.34,2.13,6.43,2.13,9.27,0,8.1-4,14.38-12,18.84-15.4,10.94-25.98,25.17-31.75,42.69-3.14,10.23-4.71,19.75-4.71,28.56,0,20.97,8,40.26,24,57.88,7.29,7.09,13.17,11.7,17.62,13.82,14.08,7.9,28.81,11.85,44.21,11.85,18.84,0,36.61-6.58,53.32-19.75,3.65-2.13,7.34-3.19,11.09-3.19,8.3,0,14.74,4.2,19.29,12.61,1.22,2.94,1.82,5.83,1.82,8.66,0,8.51-4.86,15.55-14.58,21.12-6.79,4.66-12.97,8.31-18.53,10.94-6.48,3.04-12.56,5.47-18.23,7.29-11.24,3.04-19.55,4.56-24.92,4.56h-19.14c-7.8,0-19.45-2.43-34.94-7.29-29.88-10.63-53.07-31.65-69.58-63.05-9.22-18.33-13.82-36.86-13.82-55.6,0-21.77,5.42-42.99,16.26-63.65,3.54-6.48,8.91-13.72,16.1-21.72,6.99-7.39,12.36-12.36,16.1-14.89,8.61-6.99,15.14-10.48,19.6-10.48l1.82-.3Zm53.32-22.79h1.22c7.19,0,13.32,3.34,18.38,10.03,2.63,3.95,3.95,8.31,3.95,13.07,0,8.61-4.15,15.34-12.46,20.21-3.85,1.72-7.29,2.58-10.33,2.58-9.12,0-16.16-4.51-21.12-13.52-1.32-3.44-1.97-6.63-1.97-9.57,0-8.51,4.1-15.24,12.31-20.21,3.54-1.72,6.89-2.58,10.03-2.58Z"/><path class="cls-1" d="M669.03,316.41c6.78,5.27,10.18,11.75,10.18,19.45v.61c0,1.62-.1,2.68-.3,3.19,0,2.63-2.58,8.81-7.75,18.53-19.55,39.3-29.42,59-29.62,59.1-26.03,52.26-39.1,78.44-39.2,78.54-20.05,40.31-30.18,60.52-30.38,60.62-.91,2.13-1.47,3.19-1.67,3.19l-2.13,3.49c-5.27,6.58-11.7,9.87-19.29,9.87h-.61c-2.23,0-4.51-.35-6.84-1.06-6.08-2.13-10.58-5.57-13.52-10.33l-43.45-86.59-4.86,9.57c-19.75,39.5-30.69,61.28-32.81,65.33-3.75,8-6.28,12.76-7.6,14.28-5.37,5.87-11.5,8.81-18.38,8.81h-.76c-5.57,0-10.69-1.87-15.34-5.62-5.77-5.27-8.66-11.29-8.66-18.08v-.91c0-2.83,.61-5.77,1.82-8.81,.61-1.62,10.33-21.06,29.17-58.34,7.6-15.29,18.48-37.02,32.66-65.17,2.43-5.37,4.3-8.91,5.62-10.63,5.27-6.18,11.65-9.27,19.14-9.27,2.33,0,4.81,.41,7.44,1.22,5.57,1.82,9.92,5.17,13.07,10.03,2.33,4.66,16.91,33.52,43.75,86.59h.15c14.79-29.47,23.14-46.08,25.07-49.83,13.98-28.16,32.41-64.97,55.3-110.45,3.24-6.89,5.52-11.09,6.84-12.61,5.17-6.08,11.34-9.12,18.53-9.12h.91c4.56,0,9.06,1.47,13.52,4.41Z"/></g></svg>